<svg width="420" height="420" viewBox="0 0 420 420" fill="none" xmlns="http://www.w3.org/2000/svg">
  <defs>
    <linearGradient id="strap" x1="0" y1="0" x2="0" y2="1">
      <stop offset="0" stop-color="#0F172A" />
      <stop offset="1" stop-color="#1E293B" />
    </linearGradient>
    <linearGradient id="case" x1="0" y1="0" x2="1" y2="1">
      <stop offset="0" stop-color="#0F172A" />
      <stop offset="1" stop-color="#1E1B4B" />
    </linearGradient>
    <linearGradient id="screen" x1="0" y1="0" x2="1" y2="1">
      <stop offset="0" stop-color="#FDBA74" />
      <stop offset="0.5" stop-color="#F472B6" />
      <stop offset="1" stop-color="#6366F1" />
    </linearGradient>
    <linearGradient id="glow" x1="0" y1="0" x2="0" y2="1">
      <stop offset="0" stop-color="#FDE68A" stop-opacity="0.8" />
      <stop offset="1" stop-color="#FECACA" stop-opacity="0" />
    </linearGradient>
  </defs>
  <rect x="130" y="10" width="160" height="110" rx="42" fill="url(#strap)" />
  <rect x="130" y="300" width="160" height="110" rx="42" fill="url(#strap)" />
  <g filter="url(#shadow)">
    <rect x="120" y="70" width="180" height="280" rx="70" fill="url(#case)" />
  </g>
  <rect x="142" y="94" width="136" height="232" rx="48" fill="#0B1220" />
  <rect x="155" y="108" width="110" height="204" rx="40" fill="url(#screen)" />
  <rect x="140" y="200" width="160" height="40" rx="18" fill="#0B1220" opacity="0.35" />
  <rect x="210" y="78" width="12" height="18" rx="6" fill="#1E293B" />
  <rect x="210" y="324" width="12" height="18" rx="6" fill="#1E293B" />
  <circle cx="172" cy="178" r="6" fill="#F8FAFC" opacity="0.8" />
  <rect x="176" y="170" width="68" height="16" rx="8" fill="#F8FAFC" opacity="0.8" />
  <rect x="176" y="196" width="88" height="16" rx="8" fill="#F8FAFC" opacity="0.5" />
  <rect x="176" y="222" width="72" height="16" rx="8" fill="#F8FAFC" opacity="0.35" />
  <circle cx="210" cy="342" r="12" fill="#F8FAFC" opacity="0.6" />
  <ellipse cx="210" cy="380" rx="90" ry="18" fill="url(#glow)" />
  <filter id="shadow" x="90" y="50" width="240" height="320" filterUnits="userSpaceOnUse" color-interpolation-filters="sRGB">
    <feOffset dy="12" />
    <feGaussianBlur stdDeviation="20" />
    <feComposite in2="SourceAlpha" operator="out" />
    <feColorMatrix type="matrix" values="0 0 0 0 0.09 0 0 0 0 0.11 0 0 0 0 0.20 0 0 0 0.18 0" />
    <feBlend in2="SourceGraphic" mode="normal" />
  </filter>
</svg>
